<?xml version="1.0" encoding="UTF-8"?>
<svg id="Capa_2" data-name="Capa 2" xmlns="http://www.w3.org/2000/svg" viewBox="0 0 490.12 173.23">
  <defs>
    <style>
      .cls-1 {
        fill: #e17235;
      }
    </style>
  </defs>
  <g id="Capa_1-2" data-name="Capa 1">
    <g>
      <path d="m169.56,39.53c.29-1.07.02-2.21-.72-3.04-.74-.83-1.84-1.23-2.94-1.07l-23.76,3.47-6.15-7.03,3.88-8.49,23.76-3.47c1.1-.16,2.04-.86,2.51-1.87.47-1,.4-2.18-.18-3.12-6.58-10.67-18.85-16.39-31.26-14.58-5.97.87-11.52,3.42-16.05,7.37-3.88,3.38-6.86,7.63-8.7,12.4L13.18,34.23c-4.07.59-7.67,2.74-10.13,6.04-2.46,3.3-3.49,7.36-2.89,11.43.6,4.07,2.74,7.67,6.04,10.13s7.36,3.49,11.43,2.89l96.78-14.14c3.13,4.04,7.2,7.26,11.88,9.39,5.47,2.48,11.52,3.34,17.49,2.46,12.4-1.81,22.52-10.81,25.78-22.91Z"/>
      <g>
        <path d="m229.25,102.59c-4.31,0-8.28-.72-11.91-2.17-3.63-1.45-6.78-3.49-9.46-6.14-2.68-2.65-4.74-5.79-6.18-9.42-1.45-3.63-2.17-7.63-2.17-12s.76-8.19,2.29-11.79c1.53-3.6,3.64-6.73,6.35-9.38,2.7-2.65,5.9-4.71,9.58-6.18s7.71-2.21,12.08-2.21c2.73,0,5.4.36,8.02,1.06,2.62.71,5.06,1.76,7.33,3.15,2.26,1.39,4.22,3.04,5.85,4.95l-8.52,9.74c-1.15-1.2-2.36-2.25-3.64-3.15-1.28-.9-2.69-1.6-4.22-2.09-1.53-.49-3.17-.74-4.91-.74-2.18,0-4.24.4-6.18,1.19-1.94.79-3.63,1.91-5.08,3.36s-2.58,3.21-3.4,5.28c-.82,2.08-1.23,4.39-1.23,6.96s.41,4.79,1.23,6.84c.82,2.05,1.96,3.81,3.44,5.28,1.47,1.47,3.26,2.59,5.36,3.36,2.1.77,4.43,1.15,7,1.15,1.75,0,3.41-.25,5-.74,1.58-.49,3.04-1.16,4.38-2.01,1.34-.85,2.52-1.81,3.56-2.91l6.71,10.64c-1.37,1.53-3.18,2.89-5.45,4.09-2.27,1.2-4.78,2.14-7.53,2.83-2.76.68-5.53,1.02-8.31,1.02Z"/>
        <path d="m266.59,101.77v-57.32h13.92v45.03h25.55v12.28h-39.47Z"/>
        <path d="m321.86,101.77v-11.71h9.66v-33.9h-9.66v-11.71h33.33v11.71h-9.74v33.9h9.74v11.71h-33.33Z"/>
        <path d="m399.81,102.59c-4.31,0-8.28-.72-11.91-2.17-3.63-1.45-6.78-3.49-9.46-6.14-2.68-2.65-4.74-5.79-6.18-9.42-1.45-3.63-2.17-7.63-2.17-12s.76-8.19,2.29-11.79c1.53-3.6,3.64-6.73,6.35-9.38,2.7-2.65,5.9-4.71,9.58-6.18s7.71-2.21,12.08-2.21c2.73,0,5.4.36,8.02,1.06,2.62.71,5.06,1.76,7.33,3.15,2.26,1.39,4.22,3.04,5.85,4.95l-8.52,9.74c-1.15-1.2-2.36-2.25-3.64-3.15-1.28-.9-2.69-1.6-4.22-2.09-1.53-.49-3.17-.74-4.91-.74-2.18,0-4.24.4-6.18,1.19-1.94.79-3.63,1.91-5.08,3.36s-2.58,3.21-3.4,5.28c-.82,2.08-1.23,4.39-1.23,6.96s.41,4.79,1.23,6.84c.82,2.05,1.96,3.81,3.44,5.28,1.47,1.47,3.26,2.59,5.36,3.36,2.1.77,4.43,1.15,7,1.15,1.75,0,3.41-.25,5-.74,1.58-.49,3.04-1.16,4.38-2.01,1.34-.85,2.52-1.81,3.56-2.91l6.71,10.64c-1.37,1.53-3.18,2.89-5.45,4.09-2.27,1.2-4.78,2.14-7.53,2.83-2.76.68-5.53,1.02-8.31,1.02Z"/>
        <path d="m437.15,101.77v-57.32h13.92v57.32h-13.92Zm10.15-16.79l-3.6-11.71,28.41-28.82h16.46l-41.27,40.53Zm26.61,16.79l-21.29-28,9.42-8.11,28.08,36.11h-16.21Z"/>
        <path d="m201.58,156.02v-37.85h14.98c1.98,0,3.77.49,5.35,1.46s2.85,2.32,3.79,4.03c.94,1.71,1.41,3.63,1.41,5.76,0,2.24-.47,4.23-1.41,5.97-.94,1.75-2.2,3.14-3.79,4.16-1.59,1.03-3.37,1.54-5.35,1.54h-10.76v14.92h-4.22Zm4.22-19.03h10.98c1.12,0,2.12-.33,3-1,.88-.67,1.6-1.57,2.14-2.7.54-1.14.81-2.44.81-3.92,0-1.33-.27-2.53-.81-3.6-.54-1.06-1.25-1.91-2.14-2.54-.88-.63-1.88-.95-3-.95h-10.98v14.71Z"/>
        <path d="m233.7,156.02v-40.01h4.06v40.01h-4.06Z"/>
        <path d="m255.48,156.56c-2.16,0-3.99-.44-5.49-1.32s-2.63-2.17-3.41-3.87c-.78-1.69-1.16-3.8-1.16-6.33v-17.25h4.11v16.44c0,1.91.26,3.51.78,4.79.52,1.28,1.32,2.24,2.38,2.89,1.06.65,2.37.97,3.92.97,1.19,0,2.29-.21,3.3-.62,1.01-.41,1.89-.98,2.65-1.7.76-.72,1.35-1.57,1.78-2.54s.65-2,.65-3.08v-17.14h4.05v28.22h-4l-.16-5.95.65-.32c-.43,1.26-1.15,2.41-2.16,3.43-1.01,1.03-2.21,1.85-3.6,2.46s-2.82.92-4.3.92Z"/>
        <path d="m276.89,156.02v-28.22h4.06l.11,6.43-.81.27c.29-1.08.77-2.06,1.43-2.95.67-.88,1.47-1.65,2.41-2.3.94-.65,1.96-1.14,3.08-1.49,1.12-.34,2.29-.51,3.51-.51,1.48,0,2.8.24,3.97.73,1.17.49,2.16,1.32,2.97,2.49.81,1.17,1.43,2.71,1.87,4.62l-.97-.49.38-.92c.36-.83.89-1.63,1.6-2.41.7-.77,1.51-1.47,2.43-2.08.92-.61,1.93-1.09,3.03-1.43,1.1-.34,2.23-.51,3.38-.51,1.98,0,3.66.42,5.03,1.27,1.37.85,2.41,2.14,3.11,3.87s1.05,3.93,1.05,6.6v17.03h-4.16v-16.81c0-1.87-.23-3.41-.7-4.6-.47-1.19-1.16-2.08-2.08-2.68s-2.08-.89-3.49-.89c-1.23,0-2.35.21-3.38.62-1.03.42-1.91.99-2.65,1.73s-1.32,1.58-1.73,2.51c-.41.94-.62,1.95-.62,3.03v17.08h-4.11v-16.87c0-1.8-.24-3.3-.73-4.49-.49-1.19-1.2-2.09-2.14-2.7-.94-.61-2.09-.92-3.46-.92-1.19,0-2.29.21-3.3.62-1.01.42-1.88.98-2.62,1.7-.74.72-1.32,1.55-1.73,2.49-.42.94-.62,1.95-.62,3.03v17.14h-4.11Z"/>
        <path d="m340.53,156.56c-1.33,0-2.63-.21-3.89-.62-1.26-.41-2.41-.98-3.43-1.7-1.03-.72-1.89-1.55-2.59-2.49-.7-.94-1.18-1.91-1.43-2.92l1.19.05-.16,7.08h-4v-39.96h4.05v18.54l-.81.22c.25-1.01.71-1.97,1.38-2.89s1.5-1.73,2.51-2.43c1.01-.7,2.12-1.25,3.32-1.65,1.21-.4,2.46-.59,3.76-.59,2.52,0,4.79.63,6.79,1.89,2,1.26,3.6,2.99,4.79,5.19,1.19,2.2,1.78,4.72,1.78,7.57s-.58,5.38-1.73,7.6c-1.15,2.22-2.73,3.96-4.73,5.22-2,1.26-4.26,1.89-6.79,1.89Zm-.65-3.84c1.91,0,3.6-.48,5.08-1.43,1.48-.95,2.64-2.25,3.49-3.89.85-1.64,1.27-3.49,1.27-5.54s-.42-3.95-1.27-5.57c-.85-1.62-2.01-2.9-3.49-3.84-1.48-.94-3.17-1.41-5.08-1.41s-3.61.47-5.08,1.41c-1.48.94-2.64,2.22-3.49,3.84s-1.27,3.48-1.27,5.57.42,3.96,1.27,5.6c.85,1.64,2.01,2.93,3.49,3.87,1.48.94,3.17,1.41,5.08,1.41Z"/>
        <path d="m362.75,121.68c-1.01,0-1.78-.26-2.3-.78-.52-.52-.78-1.23-.78-2.14s.27-1.62.81-2.16c.54-.54,1.3-.81,2.27-.81s1.73.26,2.27.78c.54.52.81,1.25.81,2.19,0,.87-.27,1.57-.81,2.11-.54.54-1.3.81-2.27.81Zm-2,34.33v-28.22h4.05v28.22h-4.05Z"/>
        <path d="m373.67,156.02v-28.22h4l.16,5.89-.65.27c.36-1.23,1.06-2.34,2.11-3.35,1.05-1.01,2.3-1.83,3.76-2.46,1.46-.63,2.96-.95,4.51-.95,2.09,0,3.84.42,5.24,1.24,1.41.83,2.47,2.11,3.19,3.84.72,1.73,1.08,3.93,1.08,6.6v17.14h-4.11v-16.92c0-1.87-.24-3.41-.73-4.62-.49-1.21-1.24-2.1-2.24-2.68-1.01-.58-2.25-.85-3.73-.81-1.23,0-2.36.21-3.41.62-1.05.42-1.95.98-2.7,1.7-.76.72-1.35,1.55-1.78,2.49-.43.94-.65,1.95-.65,3.03v17.19h-4.05Z"/>
        <path d="m416.98,168.45c-2.09,0-4.07-.32-5.95-.97-1.87-.65-3.42-1.46-4.65-2.43l1.62-3.41c.72.58,1.56,1.09,2.51,1.54s1.99.81,3.11,1.08c1.12.27,2.25.41,3.41.41,2.09,0,3.87-.39,5.33-1.16,1.46-.78,2.58-1.92,3.35-3.43.77-1.51,1.16-3.39,1.16-5.62v-5.41l.65-.16c-.32,1.37-1.03,2.64-2.11,3.81-1.08,1.17-2.4,2.11-3.95,2.81-1.55.7-3.19,1.05-4.92,1.05-2.63,0-4.98-.63-7.06-1.89-2.07-1.26-3.7-3-4.89-5.22-1.19-2.22-1.78-4.73-1.78-7.54s.6-5.38,1.81-7.6c1.21-2.22,2.84-3.96,4.89-5.22,2.05-1.26,4.36-1.89,6.92-1.89,1.12,0,2.2.14,3.24.41,1.04.27,2.01.66,2.89,1.16.88.51,1.68,1.08,2.41,1.73.72.65,1.33,1.35,1.81,2.11s.84,1.53,1.05,2.32l-1.14-.16.16-6.97h4.05v26.49c0,2.27-.32,4.28-.97,6.03-.65,1.75-1.59,3.23-2.84,4.43-1.24,1.21-2.72,2.13-4.43,2.76-1.71.63-3.61.95-5.7.95Zm.05-15.79c1.91,0,3.61-.46,5.11-1.38,1.5-.92,2.68-2.19,3.54-3.81s1.3-3.5,1.3-5.62-.42-3.95-1.27-5.57c-.85-1.62-2.03-2.9-3.54-3.84-1.51-.94-3.23-1.41-5.14-1.41s-3.67.47-5.16,1.41c-1.5.94-2.68,2.22-3.54,3.84s-1.3,3.48-1.3,5.57.42,3.9,1.27,5.54c.85,1.64,2.02,2.93,3.51,3.87,1.5.94,3.24,1.41,5.22,1.41Z"/>
      </g>
      <path id="cursor-click" d="m82.9,14.46c-.23-1.34-1.5-2.23-2.83-2l-7.2,1.3c-1.33.24-2.22,1.52-1.98,2.85.17.92.83,1.66,1.72,1.92.37.11.75.13,1.12.06l7.2-1.3c1.32-.25,2.19-1.51,1.96-2.83Zm-35.99,6.49h0c-.25-1.34-1.52-2.22-2.85-1.98l-7.2,1.3c-.92.17-1.66.83-1.92,1.73-.38,1.3.37,2.66,1.67,3.05.37.11.75.13,1.12.06l7.2-1.3c1.33-.24,2.22-1.52,1.98-2.85Zm4.76-11.1l-5.25-5.35s-.05-.05-.07-.07c-.97-.95-2.53-.92-3.47.05-.94.97-.92,2.53.05,3.47l5.26,5.34c.29.3.65.53,1.05.65.85.25,1.78.02,2.42-.6,0,0,0,0,.01,0,.96-.95.97-2.51.02-3.47ZM64.18.72c-1.3-.38-2.66.37-3.04,1.67l-1.84,6.28c-.38,1.3.37,2.66,1.67,3.04s2.67-.36,3.05-1.66l1.84-6.28c.38-1.3-.37-2.66-1.67-3.05Z"/>
      <g>
        <path d="m137.34,135.36l1.9-40.38c0-7.61-6.2-13.82-13.88-13.82-2.43,0-4.72.63-6.71,1.75-.89-6.76-6.71-11.99-13.76-11.99-2.43,0-4.72.64-6.71,1.75-.23-1.72-.78-3.34-1.59-4.81-2.36-4.27-6.92-7.17-12.17-7.17-2.39,0-4.63.6-6.59,1.67v-18.13c0-7.61-6.2-13.82-13.88-13.81-7.62,0-13.82,6.19-13.82,13.82v69.67s-23.91-17.42-23.91-17.42c-6.38-4.79-15.44-4.14-21.08,1.5-4.23,4.23-4.23,11.11,0,15.34l48.24,48.24c7.52,7.52,17.51,11.66,28.14,11.66h16.1c10.62,0,20.59-4.13,28.1-11.64,7.01-7.01,11.13-16.32,11.6-26.23Zm-39.71,30.64h-16.1c-8.7,0-16.87-3.39-23.02-9.54L10.27,108.21c-1.41-1.41-1.41-3.7,0-5.11,3.11-3.11,8.11-3.47,11.67-.79l29.69,21.63c1.11.8,2.56.92,3.77.3,1.21-.62,1.98-1.86,1.98-3.22v-53.45s0-23.32,0-23.32c0-3.63,2.96-6.59,6.65-6.6,1.81,0,3.46.74,4.65,1.93s1.93,2.84,1.93,4.66v51.19c0,2,1.62,3.62,3.62,3.62,1,0,1.9-.41,2.56-1.07s1.06-1.56,1.06-2.56v-20.91c0-3.63,2.95-6.58,6.65-6.58,3.62,0,6.59,2.96,6.59,6.59v20.91c0,2,1.62,3.62,3.62,3.62,1,0,1.9-.41,2.56-1.06s1.06-1.56,1.06-2.57v-10.67c0-3.63,2.95-6.58,6.65-6.58,3.62,0,6.58,2.96,6.58,6.58v10.72s0,.01,0,.01h0v.02h0s0,.02,0,.02c0,0,0,0,0,0,.05,1.95,1.66,3.52,3.62,3.51,1.99,0,3.61-1.62,3.62-3.62v-.44c0-1.76.68-3.42,1.93-4.66s2.89-1.93,4.72-1.93c3.63.01,6.57,2.96,6.59,6.42l-1.9,40.21c-.39,8.1-3.75,15.72-9.49,21.45-6.14,6.14-14.3,9.52-22.99,9.52Z"/>
        <path class="cls-1" d="m120.62,156.47c-6.14,6.14-14.3,9.52-22.99,9.52h-16.1c-8.7,0-16.87-3.39-23.02-9.54L10.27,108.21c-1.41-1.41-1.41-3.7,0-5.11,3.11-3.11,8.11-3.47,11.67-.79l29.69,21.63c1.11.8,2.56.92,3.77.3,1.21-.62,1.98-1.86,1.98-3.22v-53.45s0-23.32,0-23.32c0-3.63,2.96-6.59,6.65-6.6,1.81,0,3.46.74,4.65,1.93s1.93,2.84,1.93,4.66v51.19c0,2,1.62,3.62,3.62,3.62,1,0,1.9-.41,2.56-1.07s1.06-1.56,1.06-2.56v-20.91c0-3.63,2.95-6.58,6.65-6.58,3.62,0,6.59,2.96,6.59,6.59v20.91c0,2,1.62,3.62,3.62,3.62,1,0,1.9-.41,2.56-1.06s1.06-1.56,1.06-2.57v-10.67c0-3.63,2.95-6.58,6.65-6.58,3.62,0,6.58,2.96,6.58,6.58v10.72s0,.01,0,.01h0v.02h0s0,.02,0,.02c0,0,0,0,0,0,.05,1.95,1.66,3.52,3.62,3.51,1.99,0,3.61-1.62,3.62-3.62v-.44c0-1.76.68-3.42,1.93-4.66s2.89-1.93,4.72-1.93c3.63.01,6.57,2.96,6.59,6.42l-1.9,40.21c-.39,8.1-3.75,15.72-9.49,21.45Z"/>
      </g>
    </g>
  </g>
</svg>